<?xml version="1.0" encoding="UTF-8" standalone="no"?>
<svg
   xmlns:dc="http://purl.org/dc/elements/1.1/"
   xmlns:cc="http://creativecommons.org/ns#"
   xmlns:rdf="http://www.w3.org/1999/02/22-rdf-syntax-ns#"
   xmlns:svg="http://www.w3.org/2000/svg"
   xmlns="http://www.w3.org/2000/svg"
   xmlns:sodipodi="http://sodipodi.sourceforge.net/DTD/sodipodi-0.dtd"
   xmlns:inkscape="http://www.inkscape.org/namespaces/inkscape"
   inkscape:export-ydpi="260.09601"
   inkscape:export-xdpi="260.09601"
   inkscape:export-filename="/Users/fran/Downloads/filmaffin_logo_basic.png"
   width="100.13937mm"
   height="100mm"
   viewBox="0 0 100.13937 100"
   version="1.1"
   id="svg3088"
   sodipodi:docname="filmaffin_logo_basic_inkscape.svg"
   inkscape:version="1.0 (4035a4f, 2020-05-01)">
  <defs
     id="defs3082">
    <rect
       x="73.827286"
       y="116.28864"
       width="56.117271"
       height="13.229167"
       id="rect3287" />
    <rect
       id="rect3287-3"
       height="13.229167"
       width="56.117271"
       y="116.28864"
       x="73.827286" />
    <rect
       id="rect923"
       height="13.229167"
       width="56.117271"
       y="116.28864"
       x="73.827286" />
  </defs>
  <sodipodi:namedview
     inkscape:guide-bbox="true"
     showguides="true"
     id="base"
     pagecolor="#ffffff"
     bordercolor="#666666"
     borderopacity="1.0"
     inkscape:pageopacity="0.0"
     inkscape:pageshadow="2"
     inkscape:zoom="1"
     inkscape:cx="218.10341"
     inkscape:cy="257.09552"
     inkscape:document-units="mm"
     inkscape:current-layer="layer3"
     inkscape:document-rotation="0"
     showgrid="false"
     inkscape:window-width="1920"
     inkscape:window-height="1035"
     inkscape:window-x="1280"
     inkscape:window-y="23"
     inkscape:window-maximized="0"
     fit-margin-top="0"
     fit-margin-left="0"
     fit-margin-right="0"
     fit-margin-bottom="0">
    <sodipodi:guide
       id="guide878"
       orientation="0,-1"
       position="-0.12677714,296.8577" />
    <sodipodi:guide
       id="guide880"
       orientation="1,0"
       position="0.069793863,296.76098" />
    <sodipodi:guide
       id="guide882"
       orientation="1,0"
       position="100.06972,235.97732" />
    <sodipodi:guide
       id="guide884"
       orientation="0,-1"
       position="97.193649,211.32367" />
    <sodipodi:guide
       id="guide886"
       orientation="0,-1"
       position="100.53462,235.56536" />
    <sodipodi:guide
       position="98.627819,196.85884"
       orientation="0,-1"
       id="guide1030" />
  </sodipodi:namedview>
  <metadata
     id="metadata3085">
    <rdf:RDF>
      <cc:Work
         rdf:about="">
        <dc:format>image/svg+xml</dc:format>
        <dc:type
           rdf:resource="http://purl.org/dc/dcmitype/StillImage" />
        <dc:title></dc:title>
      </cc:Work>
    </rdf:RDF>
  </metadata>
  <g
     inkscape:label="Layer 2"
     id="layer2"
     inkscape:groupmode="layer"
     style="display:inline"
     transform="translate(-50.692522,-77.078164)">
    <rect
       y="77.220467"
       x="50.762318"
       height="100"
       width="100"
       id="rect897"
       style="fill:#467dab;stroke-width:0;fill-opacity:1" />
  </g>
  <g
     style="display:none"
     inkscape:label="Stage"
     inkscape:groupmode="layer"
     id="layer1"
     transform="translate(-50.692522,-77.078164)">
    <rect
       x="52.375107"
       y="78.833443"
       width="96.774193"
       height="63.189911"
       fill="#f0ebe7"
       id="rect3092"
       style="stroke-width:1.68258" />
    <rect
       x="52.375107"
       y="82.343987"
       width="96.774193"
       height="56.168812"
       fill="#dbd0c8"
       id="rect3094"
       style="fill:#000000;stroke-width:1.68258" />
    <polygon
       points="52,38 52,20 41,2 62,2 62,38 "
       fill="#fa8a8a"
       id="polygon3096"
       transform="matrix(1.6129032,0,0,1.7552753,49.149299,75.322889)"
       style="fill:#6fa7d9;fill-opacity:1" />
    <polygon
       points="60,4 60,36 54,36 54,19.44 44.57,4 "
       fill="#dd7a7a"
       id="polygon3098"
       transform="matrix(1.6129032,0,0,1.7552753,49.148904,75.322889)"
       style="fill:#467dab;fill-opacity:1" />
    <polygon
       points="12,38 12,20 23,2 2,2 2,38 "
       fill="#fa8a8a"
       id="polygon3100"
       transform="matrix(1.6129032,0,0,1.7552753,49.149299,75.322889)"
       style="fill:#6fa7d9;fill-opacity:1" />
    <polygon
       points="10,19.44 10,36 4,36 4,4 19.43,4 "
       fill="#dd7a7a"
       id="polygon3102"
       transform="matrix(1.6129032,0,0,1.7552753,49.149387,75.322889)"
       style="fill:#467dab;fill-opacity:1" />
    <rect
       x="52.375107"
       y="78.833443"
       width="96.774193"
       height="63.189911"
       fill="none"
       stroke="#544f4b"
       stroke-miterlimit="10"
       stroke-width="3.36517"
       id="rect3104" />
    <path
       d="m 62.052525,158.03912 a 4.8387096,4.8387096 0 0 1 9.677419,0"
       fill="#ffd5bf"
       id="path3114"
       style="stroke-width:1.6129" />
    <path
       d="m 84.633169,158.03912 a 4.83871,4.83871 0 0 1 9.67742,0"
       fill="#ffd5bf"
       id="path3116"
       style="stroke-width:1.6129" />
    <path
       d="m 107.21381,158.03912 a 4.83871,4.83871 0 0 1 9.67742,0"
       fill="#ffd5bf"
       id="path3118"
       style="stroke-width:1.6129" />
    <path
       d="m 129.79446,158.03912 a 4.83871,4.83871 0 0 1 9.67742,0"
       fill="#ffd5bf"
       id="path3120"
       style="stroke-width:1.6129" />
    <path
       d="m 62.052525,158.03912 a 4.8387096,4.8387096 0 0 1 9.677419,0"
       fill="none"
       stroke="#544f4b"
       stroke-miterlimit="10"
       stroke-width="3.22581"
       id="path3122" />
    <path
       d="m 84.633169,158.03912 a 4.83871,4.83871 0 0 1 9.67742,0"
       fill="none"
       stroke="#544f4b"
       stroke-miterlimit="10"
       stroke-width="3.22581"
       id="path3124" />
    <path
       d="m 107.21381,158.03912 a 4.83871,4.83871 0 0 1 9.67742,0"
       fill="none"
       stroke="#544f4b"
       stroke-miterlimit="10"
       stroke-width="3.22581"
       id="path3126" />
    <path
       d="m 129.79446,158.03912 a 4.83871,4.83871 0 0 1 9.67742,0"
       fill="none"
       stroke="#544f4b"
       stroke-miterlimit="10"
       stroke-width="3.22581"
       id="path3128" />
    <path
       d="m 103.98801,171.96923 v -11.4374 a 1.6129032,0.87980012 0 0 1 1.6129,-0.8798 h 12.90323 a 1.6129032,0.87980012 0 0 1 1.6129,0.8798 v 11.4374"
       fill="#b59c90"
       id="path3130"
       style="stroke-width:1.19123" />
    <path
       d="m 81.407363,171.96923 v -11.4374 a 1.6129032,0.87980012 0 0 1 1.612903,-0.8798 h 12.903226 a 1.6129032,0.87980012 0 0 1 1.612903,0.8798 v 11.4374"
       fill="#b59c90"
       id="path3132"
       style="stroke-width:1.19123" />
    <path
       d="m 142.69768,171.96923 v -11.4374 a 1.6129032,0.87980012 0 0 0 -1.6129,-0.8798 h -12.90322 a 1.6129032,0.87980012 0 0 0 -1.61291,0.8798 v 11.4374"
       fill="#b59c90"
       id="path3134"
       style="stroke-width:1.19123" />
    <path
       d="m 74.95575,171.96923 v -11.4374 a 1.6129032,0.87980012 0 0 0 -1.612903,-0.8798 H 60.439621 a 1.6129032,0.87980012 0 0 0 -1.612903,0.8798 v 11.4374"
       fill="#b59c90"
       id="path3136"
       style="stroke-width:1.19123" />
    <path
       d="m 103.98801,171.96923 v -11.4374 a 1.6129032,0.87980019 0 0 1 1.6129,-0.8798 h 12.90323 a 1.6129032,0.87980019 0 0 1 1.6129,0.8798 v 11.4374"
       fill="none"
       stroke="#544f4b"
       stroke-miterlimit="10"
       stroke-width="2.38247"
       id="path3146" />
    <path
       d="m 81.407363,171.96923 v -11.4374 a 1.6129032,0.87980019 0 0 1 1.612903,-0.8798 h 12.903226 a 1.6129032,0.87980019 0 0 1 1.612903,0.8798 v 11.4374"
       fill="none"
       stroke="#544f4b"
       stroke-miterlimit="10"
       stroke-width="2.38247"
       id="path3148" />
    <path
       d="m 142.69768,171.96923 v -11.4374 a 1.6129032,0.87980019 0 0 0 -1.6129,-0.8798 h -12.90322 a 1.6129032,0.87980019 0 0 0 -1.61291,0.8798 v 11.4374"
       fill="none"
       stroke="#544f4b"
       stroke-miterlimit="10"
       stroke-width="2.38247"
       id="path3150" />
    <path
       d="m 74.95575,171.96923 v -11.4374 a 1.6129032,0.87980019 0 0 0 -1.612903,-0.8798 H 60.439621 a 1.6129032,0.87980019 0 0 0 -1.612903,0.8798 v 11.4374"
       fill="none"
       stroke="#544f4b"
       stroke-miterlimit="10"
       stroke-width="2.38247"
       id="path3154" />
    <line
       x1="147.53639"
       y1="170.94238"
       x2="53.98801"
       y2="170.94238"
       fill="none"
       stroke="#544f4b"
       stroke-miterlimit="10"
       stroke-width="3.22581"
       id="line3156" />
    <polyline
       points="41 2 52 20 52 37"
       fill="none"
       stroke="#544f4b"
       stroke-miterlimit="10"
       stroke-width="2"
       id="polyline3162"
       transform="matrix(1.6129032,0,0,1.805426,49.149299,75.222588)" />
    <line
       x1="133.02026"
       y1="110.4284"
       x2="137.85898"
       y2="110.4284"
       fill="none"
       stroke="#544f4b"
       stroke-miterlimit="10"
       stroke-width="3.36517"
       id="line3164" />
    <line
       x1="139.47188"
       y1="110.4284"
       x2="142.69768"
       y2="110.4284"
       fill="none"
       stroke="#544f4b"
       stroke-miterlimit="10"
       stroke-width="3.36517"
       id="line3166" />
    <line
       x1="141.08478"
       y1="113.93895"
       x2="141.08478"
       y2="126.22588"
       fill="none"
       stroke="#f0d187"
       stroke-miterlimit="10"
       stroke-width="3.36517"
       id="line3168" />
    <polyline
       points="23 2 12 20 12 37"
       fill="none"
       stroke="#544f4b"
       stroke-linecap="round"
       stroke-miterlimit="10"
       stroke-width="2"
       id="polyline3170"
       transform="matrix(1.6129032,0,0,1.7552753,49.149299,75.322889)" />
    <line
       x1="68.504135"
       y1="110.4284"
       x2="63.665428"
       y2="110.4284"
       fill="none"
       stroke="#544f4b"
       stroke-miterlimit="10"
       stroke-width="3.36517"
       id="line3172" />
    <line
       x1="62.052525"
       y1="110.4284"
       x2="58.826717"
       y2="110.4284"
       fill="none"
       stroke="#544f4b"
       stroke-miterlimit="10"
       stroke-width="3.36517"
       id="line3174" />
    <line
       x1="60.439621"
       y1="113.93895"
       x2="60.439621"
       y2="126.22588"
       fill="none"
       stroke="#f0d187"
       stroke-miterlimit="10"
       stroke-width="3.36517"
       id="line3176" />
  </g>
  <g
     inkscape:label="Text"
     id="layer3"
     inkscape:groupmode="layer"
     style="display:inline"
     transform="translate(-50.692522,-77.078164)">
    <text
       transform="matrix(2.1880953,0,0,2.1880953,-106.12834,-142.77327)"
       style="font-style:normal;font-weight:normal;font-size:10.58329999999999949px;line-height:1.25;font-family:sans-serif;white-space:pre;shape-inside:url(#rect3287-3);fill:#000080;fill-opacity:1;stroke:#000000;stroke-width:0;stroke-miterlimit:4;stroke-dasharray:none;stroke-opacity:1;"
       id="text3285"
       xml:space="preserve"><tspan
         x="73.828125"
         y="126.92528"><tspan
           style="font-style:normal;font-variant:normal;font-weight:normal;font-stretch:normal;font-size:10.5833px;font-family:'Adobe Gothic Std';-inkscape-font-specification:'Adobe Gothic Std, Normal';font-variant-ligatures:normal;font-variant-caps:normal;font-variant-numeric:normal;font-variant-east-asian:normal;fill:#ffc409;fill-opacity:1;stroke:#000000;stroke-width:0;stroke-miterlimit:4;stroke-dasharray:none;stroke-opacity:1">film</tspan><tspan
           style="font-style:normal;font-variant:normal;font-weight:normal;font-stretch:normal;font-size:10.5833px;font-family:'Adobe Gothic Std';-inkscape-font-specification:'Adobe Gothic Std, Normal';font-variant-ligatures:normal;font-variant-caps:normal;font-variant-numeric:normal;font-variant-east-asian:normal;fill:#ffffff;fill-opacity:1;stroke:#000000;stroke-width:0;stroke-miterlimit:4;stroke-dasharray:none;stroke-opacity:1">affin</tspan></tspan></text>
  </g>
</svg>
